<?xml version="1.0" encoding="UTF-8" standalone="no"?>
<svg
   xmlns:dc="http://purl.org/dc/elements/1.1/"
   xmlns:cc="http://creativecommons.org/ns#"
   xmlns:rdf="http://www.w3.org/1999/02/22-rdf-syntax-ns#"
   xmlns:svg="http://www.w3.org/2000/svg"
   xmlns="http://www.w3.org/2000/svg"
   xml:space="preserve"
   style="enable-background:new 0 0 480 480;"
   viewBox="0 0 480 480"
   y="0px"
   x="0px"
   id="Layer_1"
   version="1.1"><metadata
   id="metadata968"><rdf:RDF><cc:Work
       rdf:about=""><dc:format>image/svg+xml</dc:format><dc:type
         rdf:resource="http://purl.org/dc/dcmitype/StillImage" /><dc:title></dc:title></cc:Work></rdf:RDF></metadata><defs
   id="defs966" />
<g
   transform="matrix(1,0,0,1.4249227,0.57623049,-101.11711)"
   id="g931">
	<g
   id="g929">
		<g
   id="g927">
			<path
   id="path915"
   d="m 391.502,210.725 c -5.311,-1.52 -10.846,1.555 -12.364,6.865 -1.519,5.31 1.555,10.846 6.864,12.364 45.644,13.054 73.998,31.988 73.998,49.413 0,12.752 -15.51,26.749 -42.552,38.402 -29.752,12.82 -71.958,22.2 -118.891,26.425 l -40.963,-0.555 c -0.047,0 -0.093,-0.001 -0.139,-0.001 -5.46,0 -9.922,4.389 -9.996,9.865 -0.075,5.522 4.342,10.06 9.863,10.134 l 41.479,0.562 c 0.046,0 0.091,10e-4 0.136,10e-4 0.297,0 0.593,-0.013 0.888,-0.039 49.196,-4.386 93.779,-14.339 125.538,-28.024 45.158,-19.461 54.637,-41.613 54.637,-56.77 0,-27.943 -31.43,-52.321 -88.498,-68.642 z" />
			<path
   id="path917"
   d="m 96.879,199.333 c -5.522,0 -10,4.477 -10,10 0,5.523 4.478,10 10,10 H 138 v 41.333 H 96.879 c -5.522,0 -10,4.477 -10,10 0,5.523 4.478,10 10,10 H 148 c 5.523,0 10,-4.477 10,-10 V 148 c 0,-5.523 -4.477,-10 -10,-10 H 96.879 c -5.522,0 -10,4.477 -10,10 0,5.523 4.478,10 10,10 H 138 v 41.333 z" />
			<path
   id="path919"
   d="m 188.879,280.667 h 61.334 c 5.522,0 10,-4.477 10,-10 v -61.333 c 0,-5.523 -4.477,-10 -10,-10 H 198.879 V 158 H 240 c 5.523,0 10,-4.477 10,-10 0,-5.523 -4.477,-10 -10,-10 h -51.121 c -5.523,0 -10,4.477 -10,10 v 122.667 c 0,5.523 4.477,10 10,10 z m 10,-61.334 h 41.334 v 41.333 h -41.334 z" />
			<path
   id="path921"
   d="m 291.121,280.667 h 61.334 c 5.522,0 10,-4.477 10,-10 V 148 c 0,-5.523 -4.478,-10 -10,-10 h -61.334 c -5.522,0 -10,4.477 -10,10 v 122.667 c 0,5.523 4.478,10 10,10 z m 10,-122.667 h 41.334 v 102.667 h -41.334 z" />
			<path
   id="path923"
   d="m 182.857,305.537 c -3.567,-4.216 -9.877,-4.743 -14.093,-1.176 -4.217,3.567 -4.743,9.876 -1.177,14.093 l 22.366,26.44 C 142.757,341.295 100.012,332.645 68.583,320.244 37.708,308.06 20,293.162 20,279.367 c 0,-16.018 23.736,-33.28 63.493,-46.176 5.254,-1.704 8.131,-7.344 6.427,-12.598 -1.703,-5.253 -7.345,-8.13 -12.597,-6.427 -23.129,7.502 -41.47,16.427 -54.515,26.526 C 7.674,252.412 0,265.423 0,279.367 c 0,23.104 21.178,43.671 61.242,59.48 32.564,12.849 76.227,21.869 124.226,25.758 l -19.944,22.104 c -3.7,4.1 -3.376,10.424 0.725,14.123 1.912,1.726 4.308,2.576 6.696,2.576 2.731,0 5.453,-1.113 7.427,-3.301 l 36.387,-40.325 c 1.658,-1.837 2.576,-4.224 2.576,-6.699 v -0.764 c 0,-2.365 -0.838,-4.653 -2.365,-6.458 z" />
			<path
   id="path925"
   d="m 381.414,137.486 h 40.879 c 5.522,0 10,-4.477 10,-10 V 86.592 c 0,-5.523 -4.478,-10 -10,-10 h -40.879 c -5.522,0 -10,4.477 -10,10 v 40.894 c 0,5.523 4.478,10 10,10 z m 10,-40.894 h 20.879 v 20.894 h -20.879 z" />
		</g>
	</g>
</g>
<g
   id="g933">
</g>
<g
   id="g935">
</g>
<g
   id="g937">
</g>
<g
   id="g939">
</g>
<g
   id="g941">
</g>
<g
   id="g943">
</g>
<g
   id="g945">
</g>
<g
   id="g947">
</g>
<g
   id="g949">
</g>
<g
   id="g951">
</g>
<g
   id="g953">
</g>
<g
   id="g955">
</g>
<g
   id="g957">
</g>
<g
   id="g959">
</g>
<g
   id="g961">
</g>
</svg>