<?xml version="1.0" encoding="UTF-8" standalone="no"?>
<!-- Generator: Adobe Illustrator 13.0.0, SVG Export Plug-In  -->

<svg
   xmlns:dc="http://purl.org/dc/elements/1.1/"
   xmlns:cc="http://creativecommons.org/ns#"
   xmlns:rdf="http://www.w3.org/1999/02/22-rdf-syntax-ns#"
   xmlns:svg="http://www.w3.org/2000/svg"
   xmlns="http://www.w3.org/2000/svg"
   xmlns:sodipodi="http://sodipodi.sourceforge.net/DTD/sodipodi-0.dtd"
   xmlns:inkscape="http://www.inkscape.org/namespaces/inkscape"
   version="1.1"
   x="0px"
   y="0px"
   width="11"
   height="11"
   viewBox="0 -0.11 10.3125 10.3125"
   enable-background="new 0 -0.11 764 646"
   xml:space="preserve"
   id="svg4682"
   inkscape:version="0.92.4 (5da689c313, 2019-01-14)"
   sodipodi:docname="charging_station_11.svg"><metadata
     id="metadata4692"><rdf:RDF><cc:Work
         rdf:about=""><dc:format>image/svg+xml</dc:format><dc:type
           rdf:resource="http://purl.org/dc/dcmitype/StillImage" /><dc:title></dc:title></cc:Work></rdf:RDF></metadata><sodipodi:namedview
     pagecolor="#ffffff"
     bordercolor="#666666"
     borderopacity="1"
     objecttolerance="10"
     gridtolerance="10"
     guidetolerance="10"
     inkscape:pageopacity="0"
     inkscape:pageshadow="2"
     inkscape:window-width="1918"
     inkscape:window-height="1058"
     id="namedview4690"
     showgrid="true"
     inkscape:showpageshadow="false"
     inkscape:zoom="33.659739"
     inkscape:cx="8.3545174"
     inkscape:cy="7.4268766"
     inkscape:window-x="0"
     inkscape:window-y="20"
     inkscape:window-maximized="1"
     inkscape:current-layer="svg4682"><inkscape:grid
       type="xygrid"
       id="grid4694"
       empspacing="5"
       visible="true"
       enabled="true"
       snapvisiblegridlinesonly="true"
       originx="0"
       originy="0"
       spacingx="1"
       spacingy="1" /></sodipodi:namedview><defs
     id="defs4684" /><path
     style="fill:#0071bc;stroke-width:0.03683035"
     d="M 10.3125,5.04625 A 5.1562498,5.1562498 0 0 1 5.1562498,10.2025 5.1562498,5.1562498 0 0 1 0,5.04625 5.1562498,5.1562498 0 0 1 5.1562498,-0.11000001 5.1562498,5.1562498 0 0 1 10.3125,5.04625 Z"
     id="path4696"
     inkscape:connector-curvature="0" /><circle
     style="fill:#0000ff"
     id="path4698"
     cx="0"
     cy="-569.79749"
     r="0" /><path
     d="m 9.7581841,5.3067728 c -0.04218,-0.0753 -0.07971,-0.18754 -0.143356,-0.24629 -0.079834,-0.0737 -0.159668,-0.14739 -0.2395014,-0.22109 -0.5556166,-0.51288 -1.2198351,-0.9132 -1.8636455,-1.30113 -0.5892223,-0.35505 -1.2444005,-0.71456 -1.936994,-0.80551 -0.3463951,-0.0455 -0.7301141,-0.0634 -1.0728662,0.008 -0.1600304,0.0331 -0.3689345,0.0536 -0.5130312,0.13081 -0.1737269,0.0931 -0.3452765,0.18813 -0.515995,0.28662 -0.2948452,0.1701 -0.5342253,0.48909 -0.6872413,0.78492 -0.090476,0.17493 -0.1491312,0.35363 -0.2129858,0.54027 -0.027786,0.0812 -0.019668,0.19215 -0.027997,0.27716 -0.00751,0.0766 -0.031293,0.16807 -0.023038,0.245 0.041769,0.38987 0.1419954,0.76581 0.2298261,1.14788 0.022812,0.0992 -0.1067575,0.0124 -0.1250342,-0.004 -0.090839,-0.0826 -0.181678,-0.16516 -0.2725171,-0.24774 -0.065654,-0.0597 -0.1177328,-0.0769 -0.1089647,-0.16445 0.00892,-0.0891 0.030627,-0.1849 0.020696,-0.27433 -0.021073,-0.18966 -0.1837343,-0.27531 -0.3204995,-0.38927 -0.097959,-0.0816 -0.1959334,-0.16328 -0.2938931,-0.24491 -0.070673,-0.0589 -0.072366,-0.0109 -0.1330917,0.058 -0.077097,0.0874 -0.064414,0.0748 -0.1503399,0.002 -0.095662,-0.0815 -0.1913231,-0.16298 -0.2869848,-0.24448 -0.014497,-0.0124 -0.16698428,-0.15201 -0.17549508,-0.14329 -0.064414,0.0661 -0.1288135,0.13211 -0.1932126,0.19817 0.115616,0.10511 0.2312322,0.2102 0.34683328,0.31531 0.048556,0.0441 0.097113,0.0883 0.1456692,0.13243 0.016326,0.0148 -0.052124,0.10603 -0.064188,0.12671 -0.17469388,-0.15453 -0.34937288,-0.30905 -0.52406698,-0.4636 -0.030522,0.0356 -0.19827695,0.19545 -0.16816342,0.22436 0.0997129,0.0957 0.19942562,0.19146 0.29913852,0.28718 0.030854,0.0296 0.2066517,0.16168 0.180333,0.20029 -0.043643,0.064 -0.1753896,0.17502 -0.1056541,0.23461 0.1690252,0.14445 0.33805038,0.28888 0.50707558,0.43332 0.1267574,0.10832 0.3165385,0.0715 0.4713685,0.0715 0.078715,0 0.1129555,0.045 0.1754194,0.0939 0.098836,0.0774 0.1976725,0.15484 0.2965089,0.23226 0.1259562,0.0986 0.2582613,0.23413 0.4235225,0.2424 0.092472,0.005 0.1862135,0.008 0.2768863,-0.0165 0.1006343,-0.0274 0.1238396,-0.0608 0.2027962,-0.12656 0.1418596,-0.11825 0.1396677,-0.3264 0.1165234,-0.49604 -0.048965,-0.35904 -0.1905673,-0.69774 -0.2050342,-1.05916 -0.00715,-0.17873 -0.011081,-0.33522 0.048813,-0.50296 0.054497,-0.15259 0.1079667,-0.32688 0.2000002,-0.46034 0.1948906,-0.28258 0.4556013,-0.62353 0.7931224,-0.74542 0.3434024,-0.12401 0.6879526,-0.22362 1.0584898,-0.16805 0.2004084,0.0301 0.3860926,0.062 0.5803177,0.11819 0.1744978,0.0505 0.3090407,0.13414 0.4649595,0.22942 0.3275438,0.20016 0.6177783,0.42163 0.9067584,0.6745 0.2708391,0.23699 0.5611039,0.42926 0.8869094,0.58474 0.345201,0.16477 0.7064107,0.31985 1.0080739,0.55799 0.3137571,0.2477 0.2054271,0.68752 -0.1390931,0.83518 -0.1751628,0.0751 -0.339411,0.10298 -0.5141503,0.11311 -0.1202874,-0.25863 -0.3929257,-0.43926 -0.71022,-0.43926 -0.3221168,0 -0.5983227,0.18605 -0.7157378,0.45096 -0.046591,2.4e-4 -0.093183,4.7e-4 -0.1397737,7.1e-4 -0.6160401,0.003 -1.2320951,0.006 -1.8481352,0.009 -0.1082843,-0.26433 -0.3707486,-0.45092 -0.6775668,-0.45092 -0.4035377,0 -0.7306587,0.32262 -0.7306587,0.72059 0,0.39798 0.327136,0.72059 0.7306587,0.72059 0.2961455,0 0.5509606,-0.17386 0.6657001,-0.42363 0.1075888,0.001 0.2151778,0.002 0.3228421,0.002 0.5616788,0.003 1.1233575,0.005 1.6850361,0.008 0.1215876,0.25568 0.3925778,0.43374 0.7076352,0.43374 0.3330916,0 0.6170528,-0.19899 0.727121,-0.4784 0.2733792,-0.0195 0.5248532,-0.0709 0.7852013,-0.18542 0.1697509,-0.0747 0.3178233,-0.18136 0.4456847,-0.31749 0.177052,-0.18852 0.239017,-0.37973 0.239017,-0.63198 0,-0.17558 -0.02209,-0.32222 -0.109811,-0.47888 z"
     id="path4688"
     inkscape:connector-curvature="0"
     style="fill:#ffffff;stroke-width:0.01778017" /></svg>