<?xml version="1.0" encoding="UTF-8" standalone="no"?>
<svg
   xmlns:i="&amp;ns_ai;"
   xmlns:dc="http://purl.org/dc/elements/1.1/"
   xmlns:cc="http://creativecommons.org/ns#"
   xmlns:rdf="http://www.w3.org/1999/02/22-rdf-syntax-ns#"
   xmlns:svg="http://www.w3.org/2000/svg"
   xmlns="http://www.w3.org/2000/svg"
   xml:space="preserve"
   enable-background="new 0 0 708.66 198.43"
   viewBox="0 0 6.8720005 6.5980003"
   height="6.598"
   width="6.8720002"
   y="0px"
   x="0px"
   id="Calque_1"
   version="1.1"><metadata
   id="metadata895"><rdf:RDF><cc:Work
       rdf:about=""><dc:format>image/svg+xml</dc:format><dc:type
         rdf:resource="http://purl.org/dc/dcmitype/StillImage" /><dc:title></dc:title></cc:Work></rdf:RDF></metadata><defs
   id="defs893" />
<switch
   transform="matrix(1.0175482,0,0,1.0175482,-357.14646,-97.809139)"
   id="switch888">

	<g
   id="g886"
   i:extraneous="self">
		<g
   id="g884">
			<path
   style="clip-rule:evenodd;fill:#000000;fill-opacity:1;fill-rule:evenodd;stroke-width:1.02981627"
   id="path878"
   d="m 357.72275,99.320975 c 0,1.798065 -1.50662,3.234665 -3.34587,3.234665 -1.86603,0 -3.37162,-1.43763 -3.37162,-3.234665 0,-1.763046 1.50662,-3.19861 3.37162,-3.19861 1.83925,0 3.34587,1.436593 3.34587,3.19861" />
			
			<path
   style="clip-rule:evenodd;fill:#fffefe;fill-rule:evenodd"
   id="path882"
   d="m 356.87,97.653 c -0.101,-0.184 -0.267,-0.309 -0.457,-0.375 -0.358,-0.124 -0.813,0.1 -0.94,0.406 -0.099,0.283 -0.031,0.467 -0.031,0.467 h 0.033 l 0.125,0.183 0.099,0.099 h 0.034 l 0.132,0.092 -0.134,0.125 c -0.065,0.025 -0.258,0.15 -0.323,0.249 -0.033,0.092 -0.033,0.192 0,0.25 0.034,0.092 0.125,0.15 0.224,0.183 0.166,0.066 0.458,-0.149 0.524,-0.216 0.157,-0.025 0.225,-0.125 0.323,-0.217 l 0.125,-0.124 0.134,-0.125 c 0,-0.025 0.099,-0.217 0.157,-0.375 0.066,-0.182 0.066,-0.406 -0.025,-0.622 m -3.017,3.423 0.092,-0.092 0.099,-0.217 0.1,-0.189 0.092,-0.125 0.199,-0.432 c 0.457,-0.724 0.482,-1.089 0.424,-1.313 -0.033,-0.24 -0.167,-0.341 -0.391,-0.341 -0.132,0 -0.232,0.065 -0.258,0.157 l -0.133,0.15 -0.166,0.473 c -0.058,0.116 -0.124,0.282 -0.189,0.465 -0.068,0.216 -0.168,0.439 -0.293,0.598 0,0 -0.065,0.059 -0.099,0.15 l -0.033,-0.059 c 0,-0.065 -0.157,-0.407 -0.225,-0.564 v -0.025 c -0.358,-0.781 -0.582,-1.245 -0.813,-1.28 -0.324,-0.033 -0.449,0.399 -0.449,0.434 h -0.033 l 0.066,0.282 v 0.033 l 0.092,0.15 0.133,0.224 c 0.033,0.025 0.257,0.557 0.457,1.056 0.158,0.431 0.58,0.863 0.806,0.896 0.099,0.033 0.224,-0.091 0.291,-0.182 z" />
		</g>
	</g>
</switch>

</svg>
